ffmpeg version 2.8.11-0ubuntu0.16.04.1 Copyright (c) 2000-2017 the FFmpeg developers
  built with gcc 5.4.0 (Ubuntu 5.4.0-6ubuntu1~16.04.4) 20160609
  configuration: --prefix=/usr --extra-version=0ubuntu0.16.04.1 --build-suffix=-ffmpeg --toolchain=hardened --libdir=/usr/lib/x86_64-linux-gnu --incdir=/usr/include/x86_64-linux-gnu --cc=cc --cxx=g++ --enable-gpl --enable-shared --disable-stripping --disable-decoder=libopenjpeg --disable-decoder=libschroedinger --enable-avresample --enable-avisynth --enable-gnutls --enable-ladspa --enable-libass --enable-libbluray --enable-libbs2b --enable-libcaca --enable-libcdio --enable-libflite --enable-libfontconfig --enable-libfreetype --enable-libfribidi --enable-libgme --enable-libgsm --enable-libmodplug --enable-libmp3lame --enable-libopenjpeg --enable-libopus --enable-libpulse --enable-librtmp --enable-libschroedinger --enable-libshine --enable-libsnappy --enable-libsoxr --enable-libspeex --enable-libssh --enable-libtheora --enable-libtwolame --enable-libvorbis --enable-libvpx --enable-libwavpack --enable-libwebp --enable-libx265 --enable-libxvid --enable-libzvbi --enable-openal --enable-opengl --enable-x11grab --enable-libdc1394 --enable-libiec61883 --enable-libzmq --enable-frei0r --enable-libx264 --enable-libopencv
  libavutil      54. 31.100 / 54. 31.100
  libavcodec     56. 60.100 / 56. 60.100
  libavformat    56. 40.101 / 56. 40.101
  libavdevice    56.  4.100 / 56.  4.100
  libavfilter     5. 40.101 /  5. 40.101
  libavresample   2.  1.  0 /  2.  1.  0
  libswscale      3.  1.101 /  3.  1.101
  libswresample   1.  2.101 /  1.  2.101
  libpostproc    53.  3.100 / 53.  3.100
[mp3 @ 0x12458c0] Unknown attached picture mimetype: ('image/png', None), skipping.
[mp3 @ 0x12458c0] Skipping 0 bytes of junk at 17522.
Input #0, mp3, from 'juliusz-slowacki-w-pamietniku-zofii-bobrowny_1.mp3':
  Metadata:
    title           : Juliusz Słowacki, "W pamiętniku Zofii Bobrówny" 
    artist          : Agnieszka Podsiadlik
    album           : Wolne Lektury
    encoder         : Lavf53.21.0
    genre           : Speech
    originator_reference: ft2GVaWbSjkaaaGk
    date            : 2008-10-09
    performer       : Sebastian Buttny
    album_artist    : Fundacja Nowoczesna Polska
    time_reference  : 53946283
    copyright       : 2008 Fundacja Nowoczesna Polska. Licensed to the public under http://creativecommons.org/licenses/by-sa/3.0/deed.pl verify at http://wolnelektury.pl/katalog/lektura/w-pamietniku-zofii-bobrowny/
    creation_time   : 0006-40-47
    encoded_by      : Pro Tools
    publisher       : Fundacja Nowoczesna Polska
  Duration: 00:01:10.92, start: 0.000000, bitrate: 65 kb/s
    Stream #0:0: Audio: mp3, 44100 Hz, mono, s16p, 64 kb/s
Output #0, null, to 'pipe:':
  Metadata:
    title           : Juliusz Słowacki, "W pamiętniku Zofii Bobrówny" 
    artist          : Agnieszka Podsiadlik
    album           : Wolne Lektury
    publisher       : Fundacja Nowoczesna Polska
    genre           : Speech
    originator_reference: ft2GVaWbSjkaaaGk
    date            : 2008-10-09
    performer       : Sebastian Buttny
    album_artist    : Fundacja Nowoczesna Polska
    time_reference  : 53946283
    copyright       : 2008 Fundacja Nowoczesna Polska. Licensed to the public under http://creativecommons.org/licenses/by-sa/3.0/deed.pl verify at http://wolnelektury.pl/katalog/lektura/w-pamietniku-zofii-bobrowny/
    encoded_by      : Pro Tools
    encoder         : Lavf56.40.101
    Stream #0:0: Audio: pcm_s16le, 44100 Hz, mono, s16, 705 kb/s
    Metadata:
      encoder         : Lavc56.60.100 pcm_s16le
Stream mapping:
  Stream #0:0 -> #0:0 (mp3 (native) -> pcm_s16le (native))
Press [q] to stop, [?] for help
[silencedetect @ 0x1258980] silence_start: -0.00367347
[silencedetect @ 0x1258980] silence_end: 0.731429 | silence_duration: 0.735102
[silencedetect @ 0x1258980] silence_start: 4.41102
[silencedetect @ 0x1258980] silence_end: 6.24327 | silence_duration: 1.83224
[silencedetect @ 0x1258980] silence_start: 8.30327
[silencedetect @ 0x1258980] silence_end: 9.40408 | silence_duration: 1.10082
[silencedetect @ 0x1258980] silence_start: 11.5424
[silencedetect @ 0x1258980] silence_end: 12.2253 | silence_duration: 0.682857
[silencedetect @ 0x1258980] silence_start: 14.1024
[silencedetect @ 0x1258980] silence_end: 14.8637 | silence_duration: 0.761224
[silencedetect @ 0x1258980] silence_start: 16.9759
[silencedetect @ 0x1258980] silence_end: 18.4947 | silence_duration: 1.51878
[silencedetect @ 0x1258980] silence_start: 22.2004
[silencedetect @ 0x1258980] silence_end: 22.9355 | silence_duration: 0.735102
[silencedetect @ 0x1258980] silence_start: 24.2902
[silencedetect @ 0x1258980] silence_end: 25.9396 | silence_duration: 1.64939
[silencedetect @ 0x1258980] silence_start: 28.3914
[silencedetect @ 0x1258980] silence_end: 28.9437 | silence_duration: 0.552245
[silencedetect @ 0x1258980] silence_start: 30.7686
[silencedetect @ 0x1258980] silence_end: 31.6604 | silence_duration: 0.891837
[silencedetect @ 0x1258980] silence_start: 33.3547
[silencedetect @ 0x1258980] silence_end: 33.9592 | silence_duration: 0.60449
[silencedetect @ 0x1258980] silence_start: 35.7318
[silencedetect @ 0x1258980] silence_end: 36.7282 | silence_duration: 0.996327
[silencedetect @ 0x1258980] silence_start: 41.5833
[silencedetect @ 0x1258980] silence_end: 42.8931 | silence_duration: 1.3098
[silencedetect @ 0x1258980] silence_start: 44.6135
[silencedetect @ 0x1258980] silence_end: 46.289 | silence_duration: 1.67551
[silencedetect @ 0x1258980] silence_start: 48.349
[silencedetect @ 0x1258980] silence_end: 50.1551 | silence_duration: 1.80612
[silencedetect @ 0x1258980] silence_start: 54.2004
[silencedetect @ 0x1258980] silence_end: 55.8237 | silence_duration: 1.62327
[silencedetect @ 0x1258980] silence_start: 56.8388
[silencedetect @ 0x1258980] silence_end: 57.6261 | silence_duration: 0.787347
[silencedetect @ 0x1258980] silence_start: 58.8763
[silencedetect @ 0x1258980] silence_end: 60.7086 | silence_duration: 1.83224
[silencedetect @ 0x1258980] silence_start: 62.6902
[silencedetect @ 0x1258980] silence_end: 64.6269 | silence_duration: 1.93673
[silencedetect @ 0x1258980] silence_start: 66.5563
[silencedetect @ 0x1258980] silence_end: 67.2914 | silence_duration: 0.735102
[silencedetect @ 0x1258980] silence_start: 67.9931
size=N/A time=00:01:10.92 bitrate=N/A    
video:0kB audio:6109kB subtitle:0kB other streams:0kB global headers:0kB muxing overhead: unknown
